HIERARCHY
ROOT Hips
{
    OFFSET 0.000000 0.000000 0.000000
    CHANNELS 6 Xposition Yposition Zposition Zrotation Xrotation Yrotation
    JOINT Spine
    {
        OFFSET -0.000000 7.236184 0.000000
        CHANNELS 3 Zrotation Xrotation Yrotation
        JOINT Spine1
        {
            OFFSET -0.000000 20.420147 0.000000
            CHANNELS 3 Zrotation Xrotation Yrotation
            JOINT Neck
            {
                OFFSET -0.000000 20.336288 1.848754
                CHANNELS 3 Zrotation Xrotation Yrotation
                JOINT Head
                {
                    OFFSET -0.000000 12.354461 -1.764923
                    CHANNELS 3 Zrotation Xrotation Yrotation
                    End Site
                    {
                        OFFSET -0.000000 22.061537 0.000000
                    }
                }
            }
            JOINT LeftShoulder
            {
                OFFSET 3.573296 18.396038 -0.314103
                CHANNELS 3 Zrotation Xrotation Yrotation
                JOINT LeftArm
                {
                    OFFSET 10.880760 0.000000 0.000000
                    CHANNELS 3 Zrotation Xrotation Yrotation
                    JOINT LeftForeArm
                    {
                        OFFSET 27.185530 0.000000 0.000000
                        CHANNELS 3 Zrotation Xrotation Yrotation
                        JOINT LeftHand
                        {
                            OFFSET 27.825975 0.000000 0.000000
                            CHANNELS 3 Zrotation Xrotation Yrotation
                            End Site
                            {
                                OFFSET 13.236923 0.000000 0.000000
                            }
                        }
                    }
                }
            }
            JOINT RightShoulder
            {
                OFFSET -3.474926 18.396038 -0.314103
                CHANNELS 3 Zrotation Xrotation Yrotation
                JOINT RightArm
                {
                    OFFSET -10.880760 0.000000 0.000000
                    CHANNELS 3 Zrotation Xrotation Yrotation
                    JOINT RightForeArm
                    {
                        OFFSET -27.185530 0.000000 0.000000
                        CHANNELS 3 Zrotation Xrotation Yrotation
                        JOINT RightHand
                        {
                            OFFSET -27.825975 0.000000 0.000000
                            CHANNELS 3 Zrotation Xrotation Yrotation
                            End Site
                            {
                                OFFSET -13.236923 0.000000 0.000000
                            }
                        }
                    }
                }
            }
        }
    }
    JOINT LeftUpLeg
    {
        OFFSET 8.824615 0.000000 0.000000
        CHANNELS 3 Zrotation Xrotation Yrotation
        JOINT LeftLeg
        {
            OFFSET -0.000000 -35.111282 0.000000
            CHANNELS 3 Zrotation Xrotation Yrotation
            JOINT LeftFoot
            {
                OFFSET -0.000000 -42.324711 0.000000
                CHANNELS 3 Zrotation Xrotation Yrotation
                JOINT LeftToeBase
                {
                    OFFSET -0.000000 -5.735999 13.236923
                    CHANNELS 3 Zrotation Xrotation Yrotation
                    End Site
                    {
                        OFFSET -0.000000 0.000000 3.529846
                    }
                }
            }
        }
    }
    JOINT RightUpLeg
    {
        OFFSET -8.824615 0.000000 0.000000
        CHANNELS 3 Zrotation Xrotation Yrotation
        JOINT RightLeg
        {
            OFFSET -0.000000 -35.111282 0.000000
            CHANNELS 3 Zrotation Xrotation Yrotation
            JOINT RightFoot
            {
                OFFSET -0.000000 -42.324711 0.000000
                CHANNELS 3 Zrotation Xrotation Yrotation
                JOINT RightToeBase
                {
                    OFFSET -0.000000 -5.735999 13.236923
                    CHANNELS 3 Zrotation Xrotation Yrotation
                    End Site
                    {
                        OFFSET -0.000000 0.000000 3.529846
                    }
                }
            }
        }
    }
}
MOTION
Frames:    14
Frame Time:    0.008333
-9.777291    82.301048    102.357574    -0.832212    -3.116642    -175.833099    -0.841115    -9.098533    -0.038954    -0.836887    7.974232    0.085817    4.190969    0.872516    0.778005    3.128323    -16.177614    1.092555    0.036213    18.670048    -5.782015    -26.244623    44.746559    -55.360962    6.678819    -4.324585    -41.491238    1.831382    -1.803216    -0.484934    8.505071    15.401142    -6.062733    20.468168    46.553936    55.228893    -6.358746    -10.974498    52.186825    -4.081676    -7.968547    1.994247    -2.758600    -10.219654    -8.091349    -0.989548    22.354031    6.929369    -1.950733    -15.290799    -9.688638    -0.616044    0.207834    0.682608    0.434977    -4.768075    5.014493    2.980587    13.096386    3.469756    -5.982522    -10.414385    -16.351118    -0.792325    -2.137787    0.859523    
-9.774685    82.306313    102.359367    -0.857069    -3.127324    -175.848801    -0.850608    -9.077286    -0.015187    -0.843481    7.968835    0.111913    4.180080    0.876938    0.778221    3.111571    -16.200903    1.090686    0.016010    18.694956    -5.727271    -26.526371    44.632156    -55.244698    6.799820    -4.407817    -41.777897    1.849248    -1.820221    -0.421706    8.518555    15.436587    -6.056437    20.456301    46.586998    55.342834    -6.449886    -11.021839    52.566315    -4.239920    -7.944193    1.879678    -2.785100    -10.200961    -8.176414    -1.011315    22.308821    7.011060    -1.956371    -15.303928    -9.689477    -0.619755    0.154020    0.686785    0.406630    -4.760203    5.143414    3.007112    13.059787    3.436430    -5.965335    -10.414410    -16.423429    -0.778168    -2.154727    0.844186    
-9.770952    82.310120    102.358559    -0.881412    -3.133661    -175.868805    -0.861208    -9.051332    0.009712    -0.848235    7.963679    0.136772    4.166895    0.878141    0.778464    3.095792    -16.223204    1.089054    -0.004555    18.719685    -5.674395    -26.803020    44.530182    -55.126869    6.917001    -4.499209    -42.053463    1.856435    -1.846848    -0.356616    8.533098    15.474966    -6.048812    20.429594    46.639297    55.467922    -6.559133    -11.058644    52.933266    -4.428408    -7.899876    1.752274    -2.809316    -10.184296    -8.249614    -1.031971    22.278292    7.090505    -1.966152    -15.323871    -9.688573    -0.614675    0.101257    0.681221    0.379853    -4.758058    5.256752    3.033326    13.043962    3.404600    -5.948465    -10.421601    -16.479715    -0.765851    -2.165040    0.830837    
-9.766022    82.312035    102.355621    -0.904713    -3.135755    -175.892273    -0.872690    -9.019711    0.033476    -0.851169    7.958753    0.161927    4.151989    0.874935    0.778592    3.080419    -16.244783    1.087352    -0.025047    18.743885    -5.624632    -27.069420    44.444046    -55.009415    7.033081    -4.602505    -42.320004    1.855819    -1.885661    -0.288874    8.548609    15.516016    -6.039435    20.386147    46.710869    55.605236    -6.689212    -11.084352    53.286354    -4.648591    -7.833583    1.611951    -2.831257    -10.172832    -8.308331    -1.050201    22.267321    7.164608    -1.980183    -15.351732    -9.686464    -0.600624    0.050150    0.665709    0.355716    -4.764908    5.344587    3.056526    13.054688    3.381618    -5.931622    -10.437598    -16.518291    -0.755373    -2.168204    0.819473    
-9.759934    82.311646    102.351189    -0.926624    -3.134434    -175.918304    -0.885069    -8.982503    0.056754    -0.851919    7.954153    0.185875    4.136085    0.866614    0.778530    3.064860    -16.266792    1.085338    -0.045540    18.768034    -5.579221    -27.319567    44.375961    -54.894466    7.148983    -4.720014    -42.577915    1.850251    -1.938748    -0.217267    8.565283    15.559314    -6.028361    20.325356    46.800507    55.754124    -6.841033    -11.097833    53.621746    -4.899207    -7.743523    1.460350    -2.851506    -10.170654    -8.351995    -1.065124    22.280632    7.233130    -1.998807    -15.387898    -9.684464    -0.577339    0.001567    0.639957    0.334571    -4.785137    5.400077    3.075611    13.097927    3.374223    -5.916344    -10.463417    -16.540403    -0.746738    -2.164468    0.810102    
-9.752624    82.308441    102.345825    -0.946497    -3.130537    -175.946335    -0.897803    -8.939401    0.079165    -0.850617    7.949758    0.208553    4.119551    0.852379    0.778134    3.049194    -16.290035    1.083123    -0.066107    18.791779    -5.538871    -27.553383    44.326756    -54.780621    7.265576    -4.853835    -42.829514    1.841005    -2.007672    -0.139003    8.583202    15.604983    -6.015471    20.246725    46.907356    55.915073    -7.016720    -11.097636    53.937786    -5.180483    -7.627059    1.299049    -2.870296    -10.182027    -8.382513    -1.076822    22.323444    7.297829    -2.022302    -15.433243    -9.682878    -0.544200    -0.043437    0.603273    0.317793    -4.823177    5.419938    3.089056    13.179541    3.385615    -5.902786    -10.500126    -16.546673    -0.739781    -2.154035    0.802542    
-9.744186    82.301994    102.340340    -0.963517    -3.125445    -175.975418    -0.910159    -8.890961    0.099980    -0.847708    7.945286    0.229673    4.103562    0.831034    0.778041    3.032892    -16.314428    1.080225    -0.086775    18.815842    -5.504107    -27.767838    44.295589    -54.669121    7.381167    -5.002810    -43.072605    1.828415    -2.092065    -0.052802    8.602633    15.652618    -6.001004    20.151625    47.027992    56.085606    -7.215053    -11.081635    54.228287    -5.487264    -7.483029    1.133243    -2.887793    -10.211447    -8.403568    -1.086051    22.400042    7.362508    -2.050601    -15.487781    -9.682612    -0.501077    -0.084093    0.555510    0.305976    -4.883211    5.408286    3.098379    13.303452    3.416288    -5.892996    -10.547480    -16.543163    -0.734338    -2.138054    0.796620    
-9.734554    82.291649    102.335510    -0.977439    -3.120896    -176.005478    -0.921867    -8.836870    0.119276    -0.843466    7.940131    0.249231    4.088147    0.801219    0.777870    3.016412    -16.340626    1.077426    -0.108323    18.840403    -5.474709    -27.967831    44.280636    -54.556023    7.495918    -5.167800    -43.310307    1.812457    -2.192612    0.043284    8.624023    15.702600    -5.985191    20.039557    47.162514    56.267025    -7.440015    -11.047178    54.493519    -5.819844    -7.306626    0.966658    -2.904863    -10.264789    -8.420241    -1.094104    22.516699    7.432962    -2.084167    -15.552686    -9.683912    -0.446814    -0.120113    0.495385    0.299615    -4.971412    5.371059    3.104952    13.476538    3.465873    -5.888832    -10.606020    -16.536175    -0.730169    -2.117124    0.792073    
-9.723766    82.276871    102.332199    -0.986799    -3.117880    -176.035873    -0.931436    -8.777289    0.136926    -0.838244    7.934197    0.266652    4.074333    0.761458    0.778479    2.999162    -16.368628    1.074335    -0.130970    18.865776    -5.451029    -28.154163    44.278759    -54.440388    7.606425    -5.345408    -43.539532    1.792916    -2.307476    0.147692    8.647532    15.754645    -5.968257    19.912884    47.306511    56.456150    -7.690585    -10.991197    54.726997    -6.171024    -7.096054    0.808757    -2.920792    -10.346098    -8.437171    -1.102416    22.677433    7.513305    -2.122314    -15.627874    -9.686718    -0.381577    -0.150650    0.423080    0.300620    -5.091583    5.316355    3.109913    13.702875    3.533568    -5.891718    -10.675395    -16.534002    -0.727052    -2.092916    0.788665    
-9.711874    82.256973    102.331314    -0.991037    -3.118247    -176.066467    -0.938170    -8.712460    0.152772    -0.832555    7.927127    0.281846    4.062472    0.710471    0.779945    2.981479    -16.399361    1.071740    -0.155438    18.892420    -5.432593    -28.331230    44.285988    -54.318981    7.709992    -5.533548    -43.759434    1.769058    -2.435933    0.258486    8.673619    15.808520    -5.950330    19.772253    47.458618    56.651928    -7.970041    -10.910674    54.926018    -6.537981    -6.847218    0.665751    -2.936030    -10.460794    -8.458841    -1.112250    22.887394    7.608841    -2.164769    -15.713814    -9.692175    -0.305662    -0.175874    0.338923    0.309220    -5.249661    5.253672    3.116237    13.989214    3.621335    -5.904496    -10.755838    -16.549189    -0.724678    -2.067117    0.786060    
-9.698952    82.231339    102.333878    -0.989354    -3.123606    -176.097168    -0.941017    -8.642421    0.166482    -0.827036    7.918490    0.294970    4.053280    0.646282    0.783096    2.962858    -16.432621    1.069503    -0.181991    18.920498    -5.419539    -28.504377    44.297779    -54.188030    7.803269    -5.729760    -43.967724    1.739412    -2.577061    0.373261    8.702359    15.864162    -5.931355    19.619341    47.616276    56.852219    -8.281018    -10.802655    55.087444    -6.918826    -6.556398    0.542142    -2.950564    -10.613709    -8.487694    -1.124390    23.150808    7.721906    -2.210900    -15.810403    -9.701453    -0.220859    -0.195547    0.244901    0.326393    -5.451005    5.190840    3.125523    14.341427    3.730572    -5.928199    -10.847319    -16.591616    -0.722916    -2.041833    0.784122    
-9.684933    82.199135    102.340744    -0.980343    -3.134797    -176.128250    -0.938293    -8.566381    0.178382    -0.822270    7.908110    0.305726    4.047225    0.567628    0.788428    2.943270    -16.470293    1.068205    -0.210955    18.950424    -5.411512    -28.679712    44.308884    -54.043079    7.882385    -5.931665    -44.162273    1.703306    -2.730554    0.489565    8.734170    15.921338    -5.911039    19.455290    47.778221    57.055340    -8.627347    -10.664767    55.209015    -7.313862    -6.219960    0.440121    -2.963492    -10.809332    -8.523365    -1.138894    23.472942    7.852423    -2.259692    -15.918047    -9.716921    -0.130759    -0.210420    0.144997    0.353762    -5.700950    5.135408    3.139893    14.766398    3.858644    -5.963511    -10.950075    -16.666775    -0.721664    -2.018793    0.782737    
-9.669892    82.159683    102.352814    -0.963373    -3.152894    -176.160065    -0.928944    -8.483818    0.188456    -0.819074    7.895690    0.314120    4.045168    0.472564    0.796279    2.922083    -16.512724    1.068563    -0.242438    18.982191    -5.408666    -28.863903    44.314259    -53.879116    7.943614    -6.136427    -44.338837    1.660578    -2.895505    0.604339    8.769382    15.979611    -5.888870    19.281553    47.942993    57.258789    -9.010365    -10.496951    55.288063    -7.723119    -5.837912    0.361562    -2.974678    -11.051806    -8.562606    -1.154654    23.858088    7.997481    -2.309839    -16.036715    -9.742399    -0.040503    -0.221714    0.044914    0.391754    -6.004357    5.094256    3.162053    15.268940    3.996114    -6.009398    -11.063699    -16.772503    -0.721034    -1.999785    0.782033    
-9.653993    82.112656    102.370819    -0.938271    -3.178762    -176.193069    -0.912319    -8.394800    0.196786    -0.818269    7.881155    0.320128    4.047116    0.360302    0.807626    2.899852    -16.560886    1.070758    -0.276098    19.015659    -5.410986    -29.062212    44.308952    -53.692417    7.983055    -6.339772    -44.491108    1.612710    -3.069973    0.714440    8.807883    16.038212    -5.864451    19.101133    48.108696    57.458881    -9.426565    -10.302285    55.321442    -8.144175    -5.416272    0.308817    -2.984129    -11.342816    -8.600245    -1.169639    24.306715    8.151591    -2.359943    -16.164864    -9.781450    0.044443    -0.230098    -0.049284    0.440452    -6.363613    5.072124    3.193725    15.849354    4.130247    -6.062748    -11.186504    -16.900579    -0.721008    -1.986600    0.781990    
